<svg width="1177" height="874" viewBox="0 0 1177 874" fill="none" xmlns="http://www.w3.org/2000/svg">
<path d="M972.827 233.16C859.26 84.3222 619.355 23.9471 383.415 88.9725C258.681 123.35 138.415 192.229 78.8134 325.602C-27.7302 564.02 195.972 640.165 342.248 664.433C412.98 676.168 479.597 695.88 540.472 722.718C649.992 771.001 843.85 813.786 990.032 612.662C1095.98 466.887 1048.47 332.301 972.827 233.16Z" fill="#F2F2F2"/>
<path d="M292.64 212.116C292.088 212.086 291.538 212.199 291.043 212.443C290.547 212.687 290.123 213.054 289.81 213.509C289.498 213.965 289.307 214.493 289.258 215.043C289.209 215.593 289.302 216.147 289.528 216.651C291.222 217.113 292.991 217.228 294.731 216.99C295.599 216.855 296.407 216.467 297.054 215.873C297.701 215.28 298.158 214.508 298.368 213.656C296.32 214.028 294.206 213.625 292.44 212.524" fill="#3F3D56"/>
<path d="M476.706 256.178C476.146 256.09 475.573 256.22 475.106 256.541C474.797 256.881 474.614 257.317 474.585 257.775C474.23 259.799 474.653 261.882 475.769 263.608C476.337 264.454 477.122 265.133 478.041 265.574C478.961 266.014 479.981 266.201 480.997 266.114C483.472 265.798 485.297 263.687 487.572 262.656C491.08 261.069 505.975 258.596 495.671 253.029C492.12 251.11 489.826 252.804 487.027 254.067C483.843 255.696 480.275 256.426 476.706 256.178Z" fill="#3F3D56"/>
<path d="M297.152 235.529C295.949 236.02 294.943 236.897 294.29 238.021C293.989 238.591 293.919 239.256 294.095 239.876C294.27 240.497 294.678 241.027 295.233 241.356C295.682 241.518 296.159 241.594 296.636 241.578L301.528 241.724C303.607 241.786 306.203 242.229 306.761 244.232C307.176 245.719 306.248 247.63 307.368 248.693C307.848 249.065 308.426 249.29 309.032 249.342C310.643 249.756 312.326 249.81 313.961 249.501C317.521 248.546 315.65 246.374 316.771 244.439C318.487 241.479 318.19 243.271 321.212 241.575C323.444 240.322 326.329 238.049 324.466 234.856C321.226 229.304 301.933 233.144 297.152 235.529Z" fill="#3F3D56"/>
<path d="M280.859 233.54L278.018 233.919C271.612 234.774 265.17 235.637 259 237.561C261.671 238.617 264.473 239.304 267.329 239.604C268.901 239.681 270.463 239.903 271.994 240.268C274.719 241.079 277.465 243.174 280.098 242.101C281.73 241.435 282.263 239.735 283.615 238.835C284.549 238.213 288.09 237.206 288.486 236.578C291.687 231.503 283.319 233.212 280.859 233.54Z" fill="#3F3D56"/>
<path d="M279.068 249.635C275.273 251.756 271.753 254.335 268.584 257.312C267.25 258.567 265.886 260.127 266.008 261.955C266.168 264.384 268.756 265.793 270.998 266.743L280.08 270.588C281.181 269.035 280.173 266.891 279.034 265.365C277.896 263.84 276.543 262.074 277.046 260.238C277.62 258.142 280.175 257.428 282.317 257.067C285.808 256.479 295.225 256.526 294.093 250.901C292.76 244.272 282.572 247.676 279.068 249.635Z" fill="#3F3D56"/>
<path d="M685.39 528.634C683.613 528.136 681.673 527.645 679.971 528.357C678.269 529.069 677.275 531.568 678.641 532.808C689.329 532.392 700.083 531.979 710.681 533.43C722.891 535.102 734.975 539.245 747.239 538.026C740.233 535.96 733.112 534.307 725.913 533.078L713.907 530.784C710.686 530.11 707.432 529.607 704.158 529.278C697.308 528.712 692.124 530.522 685.39 528.634Z" fill="#3F3D56"/>
<path d="M412.286 280.976C414.805 283.651 417.628 286.488 421.273 286.954C427.711 287.778 432.34 281.12 435.287 275.338C435.396 276.812 436.076 278.185 437.182 279.166C438.288 280.147 439.733 280.657 441.21 280.589C442.799 280.321 444.316 279.728 445.665 278.847C458.421 271.876 472.708 268.183 487.244 268.099C487.104 266.997 487.378 265.884 488.011 264.972C488.644 264.06 489.592 263.416 490.673 263.162C493.629 262.576 496.291 265.131 497.716 267.786C499.142 270.44 500.031 273.517 502.296 275.503C504.561 277.49 508.947 277.404 509.841 274.526C510.7 271.764 507.823 269.409 505.432 267.78C503.041 266.152 500.522 263.138 502.132 260.735C514.345 258.031 526.634 255.318 539.131 254.78C541.259 254.854 543.379 254.489 545.359 253.707C547.265 252.772 548.78 250.649 548.268 248.589C545.541 249.23 542.684 249.044 540.063 248.056C537.441 247.067 535.174 245.32 533.55 243.037C550.891 241.606 569.335 240.387 584.703 248.546C586.547 252.505 577.148 255.799 579.662 259.37C580.465 260.509 582.072 260.642 583.464 260.668C594.144 260.866 604.885 261.061 615.444 259.449C619.303 258.859 623.2 258.028 627.074 258.505C633.527 259.301 639.046 263.607 645.394 265.01C647.978 265.582 650.875 265.601 653.053 264.098C655.231 262.595 656.167 259.173 654.383 257.22C660.36 251.362 670.28 252.814 678.165 255.618C686.051 258.423 693.521 262.946 701.867 263.571C707.851 264.019 713.919 262.409 719.833 263.432C723.549 264.075 727.007 265.729 730.639 266.744C737.509 268.665 744.775 268.26 751.908 268.352C770.106 268.597 788.105 272.174 805.014 278.905C807.213 279.621 809.229 280.812 810.917 282.393C812.491 284.078 813.293 286.696 812.236 288.744L794.763 286.191C796.409 289.432 800.668 289.984 804.127 291.102C807.586 292.22 811.172 296.04 809.093 299.022C805.346 297.829 801.95 301.575 800.057 305.023C798.164 308.47 795.857 312.599 791.929 312.809C788.412 312.997 784.159 310.002 781.867 312.676C785.034 316.671 787.746 321.007 789.952 325.603C792.217 330.321 793.83 336.266 790.769 340.511C790.288 341.269 789.557 341.835 788.703 342.113C786.203 342.746 784.579 339.687 782.786 337.834C780.527 335.498 777.111 334.836 774.051 333.741C770.992 332.645 767.769 330.49 767.53 327.25C767.381 325.233 768.445 323.359 769.23 321.496C770.548 318.354 771.124 314.952 770.914 311.552C770.742 308.817 769.975 305.971 768.011 304.06C766.047 302.149 762.655 301.543 760.546 303.293C759.562 304.11 758.774 305.416 757.496 305.465C755.238 305.552 753.504 301.615 751.688 302.959C751.901 304.391 751.604 305.852 750.849 307.087C745.429 311.801 737.101 309.807 730.113 311.472C726.79 312.423 723.609 313.813 720.652 315.604C719.547 316.077 718.606 316.866 717.948 317.874C717.076 319.569 718.038 321.74 719.575 322.867C721.206 323.867 723.038 324.492 724.94 324.698C733.459 326.312 742.103 328.809 748.829 334.281C755.555 339.754 759.966 348.799 757.838 357.205L741.037 341.151C741.675 347.892 742.037 354.651 742.123 361.429C742.232 362.752 742.05 364.083 741.591 365.329C740.393 367.975 737.147 368.865 734.302 369.449C733.511 369.599 732.761 369.915 732.1 370.376C731.44 370.837 730.884 371.432 730.47 372.123C730.056 372.814 729.793 373.585 729.698 374.384C729.603 375.184 729.679 375.995 729.919 376.764C730.93 380.058 733.45 382.626 735.758 385.185C738.065 387.745 740.336 390.653 740.638 394.086C740.94 397.519 738.35 401.388 734.913 401.149C732.307 400.968 730.373 398.635 729.262 396.271C728.15 393.907 727.489 391.274 725.819 389.265C720.764 383.186 709.41 385.79 704.881 379.309C703.727 380.619 702.926 382.201 702.556 383.907C702.185 385.613 702.257 387.385 702.763 389.055C704.87 387.736 707.754 388.962 709.337 390.878C710.92 392.794 711.667 395.251 712.91 397.403C714.587 400.308 717.256 402.882 717.491 406.228C717.428 407.493 717.45 408.761 717.554 410.023C717.97 412.051 719.684 413.506 720.872 415.201C723.636 419.143 723.499 424.56 721.718 429.033C719.936 433.507 716.735 437.245 713.565 440.869C708.027 447.199 702.376 453.492 695.811 458.749C693.937 460.249 691.938 461.723 690.771 463.821C689.605 465.918 689.545 468.861 691.338 470.456C690.055 470.521 687.754 471.152 686.471 471.216C686.02 466.07 685.922 460.898 686.178 455.739C681.115 453.308 675.664 459.818 676.318 465.396C676.971 470.974 681.005 475.45 683.878 480.276C685.978 483.805 687.539 487.919 686.838 491.966C686.137 496.012 682.525 499.745 678.433 499.389C671.926 498.821 669.204 489.478 662.759 488.409C662.191 488.276 661.594 488.335 661.063 488.578C660.107 489.103 659.94 490.383 659.887 491.473C659.623 496.822 659.395 502.383 661.483 507.315C664.538 514.53 672.429 520.59 670.774 528.248C661.856 524.103 657.219 514.102 655.114 504.496C653.009 494.889 652.658 484.805 648.884 475.723C646.019 479.396 639.996 476.36 637.378 472.507C634.896 468.854 633.368 464.628 630.959 460.926C628.551 457.224 624.862 453.909 620.45 453.706C615.825 453.492 611.813 456.666 608.286 459.666C605.385 462.132 602.406 464.695 600.711 468.104C598.243 473.065 598.888 478.913 598.77 484.453C598.641 490.441 597.372 496.76 593.29 501.144C589.209 505.528 581.675 507.055 577.173 503.104C574.823 501.041 573.685 497.959 572.671 495.001C567.785 480.741 563.716 466.213 560.483 451.49C559.726 454.85 556.776 459.182 553.957 457.202C553.324 456.67 552.812 456.01 552.453 455.265C547.195 446.353 537.457 441.007 527.618 437.802C517.779 434.597 507.427 433.102 497.698 429.579C492.245 427.604 487.037 425.01 482.176 421.848C480.937 423.668 480.214 425.79 480.083 427.988C479.951 430.186 480.417 432.379 481.43 434.334C483.589 438.156 488.473 440.367 492.654 439.031C494.814 438.341 496.638 436.841 498.782 436.1C500.926 435.36 503.803 435.723 504.74 437.789C505.638 439.766 504.281 442.157 504.954 444.221C505.979 447.365 510.72 447.607 512.378 450.468C513.612 452.596 512.597 455.423 510.835 457.14C509.074 458.858 506.724 459.8 504.574 460.995C497.598 464.875 492.637 471.497 486.54 476.649C480.443 481.801 471.842 485.563 464.576 482.258C466.308 473.488 455.861 467.049 453.939 458.319C453.306 455.445 453.634 452.393 452.731 449.592C451.423 445.538 447.826 442.75 444.875 439.678C441.296 435.91 438.508 431.464 436.675 426.602C434.842 421.74 434.001 416.56 434.202 411.367C434.362 407.759 435.025 404.092 434.203 400.575C433.381 397.058 430.469 393.654 426.861 393.814C418.62 394.178 408.238 394.791 403.914 387.766C402.371 385.258 401.699 381.586 403.93 379.665C405.504 378.31 407.828 378.438 409.895 378.641L428.463 380.467C432.806 380.895 437.5 381.247 441.227 378.977C444.954 376.707 446.568 370.68 443.118 368.009C440.596 366.057 436.079 366.163 435.346 363.06C434.736 360.475 437.596 357.543 436.051 355.383C434.943 353.835 432.453 354.264 430.944 355.425C429.434 356.586 428.339 358.284 426.65 359.163C423.688 360.705 420.147 359.237 416.96 358.24C413.772 357.243 409.498 357.158 407.952 360.119C406.223 363.43 409.486 367.769 407.77 371.087C405.501 375.473 397.817 372.976 394.631 376.749C390.974 381.079 397.119 387.536 395.886 393.067C394.311 393.847 392.562 394.205 390.808 394.106C389.054 394.008 387.355 393.456 385.878 392.505C384.426 391.517 383.268 390.153 382.528 388.56C381.788 386.966 381.495 385.202 381.678 383.454C381.983 380.966 383.28 378.426 382.411 376.074C381.708 374.173 379.799 373.041 378.025 372.061L359.981 362.09C358.306 365.198 360.424 369.05 363.073 371.385C365.721 373.719 369.039 375.477 370.779 378.549C371.88 380.677 372.127 383.145 371.469 385.45C370.811 387.754 369.299 389.72 367.241 390.947C366.983 391.125 366.689 391.245 366.38 391.299C366.072 391.352 365.755 391.339 365.452 391.259C365.164 391.089 364.913 390.864 364.714 390.596C364.514 390.328 364.371 390.023 364.292 389.699C361.108 381.551 356.328 373.518 348.686 369.262C341.044 365.006 330.063 365.881 325.052 373.051C323.861 374.754 323.062 376.695 322.025 378.495C316.516 388.061 304.706 392.59 293.672 392.294C292.592 392.354 291.518 392.102 290.579 391.567C288.795 390.336 288.876 387.722 289.149 385.572L290.307 376.448C290.539 374.616 290.876 372.591 292.327 371.447C294.371 369.835 297.32 370.852 299.923 370.815C301.895 370.722 303.791 370.026 305.354 368.819C306.917 367.613 308.072 365.955 308.661 364.071C309.187 362.168 309.183 360.157 308.651 358.256C308.119 356.355 307.078 354.635 305.64 353.282C304.447 352.161 302.846 350.753 303.476 349.243C303.727 348.825 304.067 348.467 304.472 348.194C304.877 347.922 305.336 347.742 305.818 347.666C310.494 346.308 315.435 345.952 320.033 344.35C324.631 342.747 329.09 339.469 330.179 334.723C330.513 333.269 330.665 331.507 331.971 330.786C332.627 330.509 333.33 330.365 334.042 330.363C336.535 330.008 338.805 328.733 340.405 326.789C342.004 324.844 342.818 322.372 342.686 319.857C344.89 318.317 347.977 319.45 350.109 321.088C352.241 322.725 354.123 324.889 356.717 325.595C361.551 326.911 366.223 322.631 371.233 322.611C373.34 322.603 375.521 323.348 377.503 322.633C379.512 321.909 380.712 319.909 382.254 318.431C383.796 316.954 386.502 316.052 387.926 317.644L386.714 308.662C389.156 309.279 391.701 309.366 394.18 308.918C396.659 308.47 399.013 307.497 401.084 306.064L385.412 300.769C384.866 300.632 384.363 300.363 383.947 299.985C382.807 298.758 383.939 296.846 384.865 295.452C387.082 292.115 387.454 286.619 383.809 284.958C381.321 283.825 378.466 285.185 376.078 286.517L364.639 292.895C364.276 295.069 366.934 296.301 368.582 297.766C369.579 298.652 370.284 299.819 370.606 301.113C370.927 302.408 370.85 303.769 370.384 305.019C369.917 306.268 369.084 307.348 367.993 308.115C366.902 308.882 365.604 309.301 364.271 309.318C365.024 310.297 365.547 311.433 365.802 312.642C366.057 313.851 366.036 315.102 365.742 316.302L358.046 316.855C357.182 317.029 356.285 316.854 355.55 316.368C354.726 315.637 354.838 314.356 354.647 313.272C354.187 310.655 351.624 308.821 349.009 308.35C346.394 307.88 343.719 308.483 341.129 309.078C340.03 309.474 338.822 309.446 337.742 309C337.122 308.597 336.652 308.003 336.402 307.308C335.266 304.556 336.328 301.32 338.151 298.966C339.974 296.612 342.471 294.891 344.712 292.931C350.073 288.227 354.012 282.118 356.084 275.294C360.321 273.518 364.707 271.107 368.944 269.331C375.475 266.024 382.8 264.605 390.095 265.233L404.443 265.507C408.691 265.589 413.054 265.692 416.982 267.312C420.91 268.931 424.361 272.434 424.633 276.674C424.714 277.154 424.673 277.647 424.512 278.107C424.351 278.566 424.076 278.978 423.713 279.302C423.158 279.604 422.529 279.746 421.898 279.711C417.937 279.85 416.248 280.837 412.286 280.976Z" fill="#3F3D56"/>
<path d="M511.339 296.712C511.899 296.181 512.303 295.507 512.505 294.762C512.707 294.017 512.699 293.23 512.484 292.489C511.119 291.963 509.636 291.828 508.199 292.099C506.762 292.37 505.43 293.037 504.352 294.025C503.502 294.885 502.769 295.853 502.173 296.905C500.288 299.981 498.62 303.655 499.713 307.094C499.802 307.469 499.965 307.822 500.192 308.133C500.42 308.444 500.707 308.707 501.037 308.905C501.527 309.102 502.055 309.185 502.581 309.147C504.658 309.145 506.733 309.017 508.795 308.765C510.061 308.61 511.531 308.252 512.021 307.075C512.664 305.526 511.107 303.774 511.561 302.16C511.86 301.438 512.312 300.79 512.887 300.261C513.172 299.995 513.391 299.666 513.527 299.3C513.663 298.934 513.711 298.542 513.669 298.154C513.486 297.396 512.326 296.967 511.909 297.625" fill="#3F3D56"/>
<path d="M522.109 282.749C520.264 282.325 518.362 282.206 516.478 282.395C516.062 282.383 515.649 282.476 515.278 282.668C514.92 282.932 514.659 283.309 514.539 283.738C514.141 285.015 514.239 286.395 514.813 287.603C515.387 288.811 516.395 289.759 517.636 290.257C518.312 290.413 518.96 290.673 519.556 291.029C521.149 292.264 520.134 294.79 520.435 296.783C520.774 299.021 522.94 300.899 522.543 303.128C522.23 304.883 520.355 306.273 520.657 308.031C520.973 309.871 523.309 310.424 525.17 310.572C526.249 310.761 527.36 310.633 528.368 310.205C529.379 309.514 530.098 308.473 530.386 307.283C531.148 305.015 531.468 302.621 531.329 300.231C531.321 299.145 531.048 298.076 530.534 297.119C529.974 296.36 529.352 295.649 528.676 294.991C525.109 290.842 528.865 284.653 522.109 282.749Z" fill="#3F3D56"/>
<path d="M571.5 496C575.642 496 579 492.642 579 488.5C579 484.358 575.642 481 571.5 481C567.358 481 564 484.358 564 488.5C564 492.642 567.358 496 571.5 496Z" fill="#6C63FF"/>
<path d="M563.968 472.936C570.578 472.936 575.936 467.578 575.936 460.968C575.936 454.358 570.578 449 563.968 449C557.358 449 552 454.358 552 460.968C552 467.578 557.358 472.936 563.968 472.936Z" fill="#6C63FF"/>
<path d="M607 451C610.866 451 614 447.866 614 444C614 440.134 610.866 437 607 437C603.134 437 600 440.134 600 444C600 447.866 603.134 451 607 451Z" fill="#6C63FF"/>
<path d="M597 433C602.523 433 607 428.523 607 423C607 417.477 602.523 413 597 413C591.477 413 587 417.477 587 423C587 428.523 591.477 433 597 433Z" fill="#6C63FF"/>
<path d="M571.5 428C575.642 428 579 424.642 579 420.5C579 416.358 575.642 413 571.5 413C567.358 413 564 416.358 564 420.5C564 424.642 567.358 428 571.5 428Z" fill="#6C63FF"/>
</svg>
